0.16m3min_grf.mot
version=1
nRows=20
nColumns 19
inDegrees=yes
endheader
time	1_ground_force_vx	1_ground_force_vy	1_ground_force_vz	1_ground_force_px	1_ground_force_py	1_ground_force_pz	1_ground_torque_x	1_ground_torque_y	1_ground_torque_z	2_ground_force_vx	2_ground_force_vy	2_ground_force_vz	2_ground_force_px	2_ground_force_py	2_ground_force_pz	2_ground_torque_x	2_ground_torque_y	2_ground_torque_z
            0.005000	           22.666434	          298.554036	           -5.700650	           -0.287254	            0.006452	           -0.461075	            0.043063	            0.567206	           -0.010830	           23.584333	          294.330734	            8.688781	           -0.296086	            0.005208	           -0.639734	           -0.062264	           -0.777046	           -0.022939
            0.005500	           22.713332	          292.785543	           -5.725499	           -0.287153	            0.006453	           -0.461235	            0.040659	            0.524110	           -0.010249	           23.739404	          290.280800	            8.439625	           -0.295624	            0.005212	           -0.640303	           -0.055385	           -0.677233	           -0.019690
            0.006000	           22.576642	          287.558039	           -5.793429	           -0.287550	            0.006452	           -0.461047	            0.048435	            0.616918	           -0.012429	           23.521747	          285.676421	            8.376370	           -0.295991	            0.005209	           -0.639931	           -0.050426	           -0.612437	           -0.017957
            0.006500	           22.854035	          282.868629	           -5.218082	           -0.286799	            0.006451	           -0.460677	            0.061951	            0.766780	           -0.014145	           23.776040	          280.151965	            8.591199	           -0.296165	            0.005206	           -0.639278	           -0.054574	           -0.643042	           -0.019720
            0.007000	           22.395697	          278.002713	           -5.558805	           -0.286931	            0.006449	           -0.460390	            0.049145	            0.610044	           -0.012198	           23.975465	          276.837485	            8.720077	           -0.295690	            0.005211	           -0.640053	           -0.067456	           -0.778899	           -0.024534
            0.007500	           22.626698	          272.593411	           -5.261572	           -0.286581	            0.006448	           -0.460024	            0.045342	            0.546251	           -0.010544	           24.271933	          272.602411	            8.892557	           -0.295703	            0.005212	           -0.640435	           -0.071041	           -0.797873	           -0.026027
            0.008000	           22.489489	          266.465728	           -5.608503	           -0.287124	            0.006453	           -0.461292	            0.039299	            0.465632	           -0.009800	           23.819967	          267.997689	            8.688618	           -0.295544	            0.005213	           -0.640567	           -0.057207	           -0.643640	           -0.020867
            0.008500	           22.352362	          261.779580	           -5.811682	           -0.286900	            0.006451	           -0.460846	            0.023769	            0.278373	           -0.006180	           23.979912	          262.656868	            8.951072	           -0.296040	            0.005209	           -0.639930	           -0.056914	           -0.623391	           -0.021245
            0.009000	           22.812333	          255.830115	           -5.654904	           -0.286942	            0.006452	           -0.461054	            0.042709	            0.478966	           -0.010587	           24.088192	          258.606324	            8.842720	           -0.296169	            0.005207	           -0.639574	           -0.054840	           -0.588748	           -0.020131
            0.009500	           22.675218	          251.684568	           -5.809908	           -0.286269	            0.006448	           -0.459989	            0.045324	            0.503081	           -0.011613	           23.917511	          254.001079	            9.061014	           -0.295775	            0.005209	           -0.639581	           -0.048655	           -0.516708	           -0.018433
            0.010000	           22.446797	          246.096681	           -5.925013	           -0.286348	            0.006450	           -0.460427	            0.054795	            0.600747	           -0.014464	           23.698529	          249.764982	            8.999073	           -0.295954	            0.005210	           -0.640183	           -0.044061	           -0.464368	           -0.016731
            0.010500	           22.539503	          240.508462	           -5.949203	           -0.285996	            0.006451	           -0.460830	            0.055224	            0.589266	           -0.014576	           23.996306	          245.161794	            9.123311	           -0.295523	            0.005211	           -0.640110	           -0.052410	           -0.535458	           -0.019926
            0.011000	           22.174379	          236.000373	           -5.646625	           -0.285972	            0.006448	           -0.460088	            0.037305	            0.397031	           -0.009500	           23.915254	          241.662462	            9.157795	           -0.295649	            0.005213	           -0.640839	           -0.060095	           -0.607259	           -0.023012
            0.011500	           21.717083	          230.411852	           -5.623593	           -0.286374	            0.006448	           -0.460090	            0.017257	            0.183097	           -0.004469	           24.074473	          236.506315	            9.280122	           -0.295525	            0.005211	           -0.640102	           -0.053772	           -0.528251	           -0.020728
            0.012000	           21.763441	          224.464077	           -5.878494	           -0.286759	            0.006453	           -0.461210	            0.019774	            0.203945	           -0.005341	           23.856074	          232.086746	            9.029812	           -0.295615	            0.005211	           -0.640081	           -0.040466	           -0.393679	           -0.015317
            0.012500	           21.810091	          220.678310	           -5.848984	           -0.285441	            0.006448	           -0.460050	            0.022942	            0.232126	           -0.006152	           23.639102	          227.298059	            9.012828	           -0.296464	            0.005207	           -0.639933	           -0.032409	           -0.311625	           -0.012357
            0.013000	           21.810625	          214.009660	           -6.152719	           -0.286242	            0.006456	           -0.462020	            0.042325	            0.415297	           -0.011940	           23.514629	          222.876988	            9.278687	           -0.296380	            0.005210	           -0.640484	           -0.034414	           -0.326183	           -0.013579
            0.013500	           21.673639	          210.404516	           -6.213693	           -0.285912	            0.006449	           -0.460299	            0.045526	            0.441961	           -0.013052	           23.247528	          219.008500	            9.358864	           -0.295627	            0.005213	           -0.640563	           -0.028611	           -0.269541	           -0.011518
            0.014000	           21.399244	          204.276217	           -6.422715	           -0.286064	            0.006454	           -0.461434	            0.047924	            0.457477	           -0.014384	           23.360022	          213.851179	            9.762780	           -0.295811	            0.005211	           -0.640443	           -0.040008	           -0.366260	           -0.016721
            0.014500	           20.805132	          201.029157	           -5.930734	           -0.285400	            0.006448	           -0.460132	            0.019978	            0.193040	           -0.005695	           23.279429	          210.169381	            9.327326	           -0.295215	            0.005215	           -0.640927	           -0.045254	           -0.408555	           -0.018132
